<mxfile host="Electron" agent="Mozilla/5.0 (Macintosh; Intel Mac OS X 10_15_7) AppleWebKit/537.36 (KHTML, like Gecko) draw.io/26.0.9 Chrome/128.0.6613.186 Electron/32.2.5 Safari/537.36" version="26.0.9">
  <diagram name="Page-1" id="Vnu2i-BlupItWaMRqm4q">
    <mxGraphModel dx="1035" dy="732" grid="0" gridSize="10" guides="1" tooltips="1" connect="1" arrows="1" fold="1" page="1" pageScale="1" pageWidth="850" pageHeight="1100" math="0" shadow="0">
      <root>
        <mxCell id="0" />
        <mxCell id="1" parent="0" />
        <mxCell id="6t7_bc9BR-5GvSbID-V4-5" style="edgeStyle=orthogonalEdgeStyle;rounded=0;orthogonalLoop=1;jettySize=auto;html=1;exitX=1;exitY=0.5;exitDx=0;exitDy=0;entryX=0;entryY=0.5;entryDx=0;entryDy=0;" parent="1" source="6t7_bc9BR-5GvSbID-V4-2" target="6t7_bc9BR-5GvSbID-V4-4" edge="1">
          <mxGeometry relative="1" as="geometry">
            <Array as="points">
              <mxPoint x="491" y="521" />
              <mxPoint x="491" y="521" />
            </Array>
          </mxGeometry>
        </mxCell>
        <mxCell id="6t7_bc9BR-5GvSbID-V4-6" value="CDC" style="edgeLabel;html=1;align=center;verticalAlign=middle;resizable=0;points=[];" parent="6t7_bc9BR-5GvSbID-V4-5" vertex="1" connectable="0">
          <mxGeometry x="-0.297" y="-1" relative="1" as="geometry">
            <mxPoint x="1" y="-16" as="offset" />
          </mxGeometry>
        </mxCell>
        <mxCell id="6t7_bc9BR-5GvSbID-V4-2" value="СУБД YDB" style="shape=image;verticalLabelPosition=bottom;verticalAlign=top;imageAspect=0;aspect=fixed;image=data:image/svg+xml,PHN2ZyB4bWxucz0iaHR0cDovL3d3dy53My5vcmcvMjAwMC9zdmciIHdpZHRoPSIzMiIgaGVpZ2h0PSIzMiIgdmlld0JveD0iMCAwIDMyIDMyIiBmaWxsPSJub25lIj4mI3hhOzxwYXRoIGQ9Ik0wIDE2QzAgNy4xNjM0NCA3LjE2MzQ0IDAgMTYgMFYwQzI0LjgzNjYgMCAzMiA3LjE2MzQ0IDMyIDE2VjE2QzMyIDI0LjgzNjYgMjQuODM2NiAzMiAxNiAzMlYzMkM3LjE2MzQ0IDMyIDAgMjQuODM2NiAwIDE2VjE2WiIgZmlsbD0iIzUyODJGRiIvPiYjeGE7PHBhdGggZmlsbC1ydWxlPSJldmVub2RkIiBjbGlwLXJ1bGU9ImV2ZW5vZGQiIGQ9Ik0yNCAxMC41QzI0IDExLjMyODQgMjIuNjU2OSAxMiAyMSAxMkMxOS4zNDMxIDEyIDE4IDExLjMyODQgMTggMTAuNUMxOCA5LjY3MTU3IDE5LjM0MzEgOSAyMSA5QzIyLjY1NjkgOSAyNCA5LjY3MTU3IDI0IDEwLjVaTTEzIDIzLjNWMjAuNUMxMy45IDIxLjIgMTQuOSAyMS42IDE2IDIxLjRDMTcuMSAyMS41IDE4LjEgMjEuMiAxOSAyMC41VjIzLjNDMTkgMjQuMiAxNy43IDI0LjkgMTYgMjQuOUMxNC4zIDI0LjkgMTMgMjQuMiAxMyAyMy4zWk0xOCAxMS41VjEySDE0VjExLjZDMTMuMiAxMi4zIDEyLjEgMTIuNiAxMSAxMi42QzkuOSAxMi42IDguOCAxMi4zIDggMTEuNlYxNC41QzggMTUuMyA5LjMgMTYgMTAuOCAxNi4xTDEzLjMgMTlDMTMuMSAxOSAxMyAxOS4zIDEzIDE5LjVDMTMgMjAuMyAxNC4zIDIxIDE2IDIxQzE3LjcgMjEgMTkgMjAuMyAxOSAxOS41QzE5IDE5LjMgMTguOSAxOSAxOC43IDE4LjlMMjEuMiAxNkMyMi44IDE1LjkgMjQgMTUuMiAyNCAxNC40VjExLjVDMjMuMiAxMi4yIDIyLjEgMTIuNSAyMSAxMi41QzE5LjkgMTIuNiAxOC44IDEyLjIgMTggMTEuNVpNMTYgMThDMTUuNCAxOCAxNC43IDE4LjEgMTQuMSAxOC4zTDEyIDE1LjlDMTMuMSAxNS43IDEzLjkgMTUuMSAxMy45IDE0LjRWMTNIMTcuOVYxNC40QzE3LjkgMTUuMSAxOC43IDE1LjcgMTkuOCAxNS45TDE3LjcgMTguM0MxNy4zIDE4LjEgMTYuNiAxOCAxNiAxOFpNMTQgMTAuNUMxNCAxMS4zMjg0IDEyLjY1NjkgMTIgMTEgMTJDOS4zNDMxNSAxMiA4IDExLjMyODQgOCAxMC41QzggOS42NzE1NyA5LjM0MzE1IDkgMTEgOUMxMi42NTY5IDkgMTQgOS42NzE1NyAxNCAxMC41WiIgZmlsbD0id2hpdGUiLz4mI3hhOzwvc3ZnPg==;labelPosition=center;align=center;" parent="1" vertex="1">
          <mxGeometry x="348" y="486" width="70" height="70" as="geometry" />
        </mxCell>
        <mxCell id="se9nnUXJiQDi4H6NhfoD-10" style="edgeStyle=orthogonalEdgeStyle;rounded=0;orthogonalLoop=1;jettySize=auto;html=1;exitX=1;exitY=0.5;exitDx=0;exitDy=0;entryX=0;entryY=0.5;entryDx=0;entryDy=0;" parent="1" source="6t7_bc9BR-5GvSbID-V4-4" target="6t7_bc9BR-5GvSbID-V4-9" edge="1">
          <mxGeometry relative="1" as="geometry">
            <Array as="points">
              <mxPoint x="623" y="521" />
              <mxPoint x="623" y="460" />
              <mxPoint x="460" y="460" />
              <mxPoint x="460" y="351" />
            </Array>
          </mxGeometry>
        </mxCell>
        <mxCell id="se9nnUXJiQDi4H6NhfoD-11" value="потребляет" style="edgeLabel;html=1;align=center;verticalAlign=middle;resizable=0;points=[];" parent="se9nnUXJiQDi4H6NhfoD-10" vertex="1" connectable="0">
          <mxGeometry x="0.0933" y="-3" relative="1" as="geometry">
            <mxPoint x="42" y="-16" as="offset" />
          </mxGeometry>
        </mxCell>
        <mxCell id="6t7_bc9BR-5GvSbID-V4-4" value="Yandex Data Streams&#xa;(шина данных)" style="shape=image;verticalLabelPosition=bottom;labelBackgroundColor=#ffffff;verticalAlign=top;aspect=fixed;imageAspect=0;image=data:image/svg+xml,PHN2ZyB4bWxucz0iaHR0cDovL3d3dy53My5vcmcvMjAwMC9zdmciIHdpZHRoPSIzMiIgaGVpZ2h0PSIzMiIgdmlld0JveD0iMCAwIDMyIDMyIiBmaWxsPSJub25lIj4mI3hhOzxwYXRoIGQ9Ik0wIDE2QzAgNy4xNjM0NCA3LjE2MzQ0IDAgMTYgMEMyNC44MzY2IDAgMzIgNy4xNjM0NCAzMiAxNkMzMiAyNC44MzY2IDI0LjgzNjYgMzIgMTYgMzJDNy4xNjM0NCAzMiAwIDI0LjgzNjYgMCAxNloiIGZpbGw9IiM1MjgyRkYiLz4mI3hhOzxwYXRoIGZpbGwtcnVsZT0iZXZlbm9kZCIgY2xpcC1ydWxlPSJldmVub2RkIiBkPSJNMTkgMjEuNDkyQzE5IDIxLjI2NSAxOS4wNTEgMjEuMDUyIDE5LjE0NiAyMC44NTJMMTcuMjk4IDE4Ljk5OEgxNlYxOS42NzhDMTYgMjAuNDEyIDE1LjQwOCAyMC45OTggMTQuNjc5IDIwLjk5OEg5LjMyQzguNTkxIDIwLjk5OCA4IDIwLjQxMiA4IDE5LjY3OFYxMS4zMTlDOCAxMC41ODYgOC41OTIgOS45OTkwMSA5LjMyMSA5Ljk5OTAxSDE0LjY4QzE1LjQxIDkuOTk5MDEgMTYuMDAxIDEwLjU4NiAxNi4wMDEgMTEuMzE5VjExLjk5OUgxNy4yOTlMMTkuMTQ2IDEwLjE0NkMxOS4wMzYxIDkuOTE3NDkgMTguOTg2IDkuNjY0OCAxOS4wMDA0IDkuNDExNjNDMTkuMDE0OSA5LjE1ODQ2IDE5LjA5MzQgOC45MTMxMiAxOS4yMjg3IDguNjk4NjFDMTkuMzYzOSA4LjQ4NDEgMTkuNTUxNCA4LjMwNzQ3IDE5Ljc3MzYgOC4xODUyN0MxOS45OTU4IDguMDYzMDggMjAuMjQ1NCA3Ljk5OTMzIDIwLjQ5OSA4LjAwMDAxQzIwLjcyNDIgNy45OTk5MSAyMC45NDY2IDguMDUwNTQgMjEuMTQ5NiA4LjE0ODEzQzIxLjM1MjUgOC4yNDU3MiAyMS41MzA5IDguMzg3NzYgMjEuNjcxNSA4LjU2MzcyQzIxLjgxMjEgOC43Mzk2OCAyMS45MTEyIDguOTQ1MDMgMjEuOTYxNiA5LjE2NDU1QzIyLjAxMiA5LjM4NDA3IDIyLjAxMjMgOS42MTIxMSAyMS45NjI1IDkuODMxNzVDMjEuOTEyNiAxMC4wNTE0IDIxLjgxNCAxMC4yNTcgMjEuNjczOSAxMC40MzMzQzIxLjUzMzcgMTAuNjA5NiAyMS4zNTU3IDEwLjc1MjEgMjEuMTUzIDEwLjg1MDJDMjAuOTUwMiAxMC45NDgzIDIwLjcyOCAxMC45OTk1IDIwLjUwMjggMTFDMjAuMjc3NiAxMS4wMDA1IDIwLjA1NTEgMTAuOTUwMiAxOS44NTIgMTAuODUzTDE3Ljg2IDEyLjg1M0MxNy43NjU4IDEyLjk0NjIgMTcuNjM4NSAxMi45OTgzIDE3LjUwNiAxMi45OThIMTZWMTQuOTk4SDIxLjA4MkMyMS4yODggMTQuNDExIDIxLjg0NCAxMy45OTggMjIuNDk4IDEzLjk5OEMyMi44OTU4IDEzLjk5OCAyMy4yNzc0IDE0LjE1NiAyMy41NTg3IDE0LjQzNzNDMjMuODQgMTQuNzE4NiAyMy45OTggMTUuMTAwMiAyMy45OTggMTUuNDk4QzIzLjk5OCAxNS44OTU4IDIzLjg0IDE2LjI3NzQgMjMuNTU4NyAxNi41NTg3QzIzLjI3NzQgMTYuODQgMjIuODk1OCAxNi45OTggMjIuNDk4IDE2Ljk5OEMyMS44NDQgMTYuOTk4IDIxLjI4OCAxNi41ODQgMjEuMDgyIDE1Ljk5OEgxNlYxNy45OThIMTcuNTA2QzE3LjYzOCAxNy45OTggMTcuNzY2IDE4LjA1MSAxNy44NiAxOC4xNDRMMTkuODUzIDIwLjE0NEMyMC4wODEyIDIwLjAzMzYgMjAuMzMzNiAxOS45ODMgMjAuNTg2NyAxOS45OTY4QzIwLjgzOTggMjAuMDEwNiAyMS4wODUzIDIwLjA4ODUgMjEuMzAwMSAyMC4yMjMxQzIxLjUxNDggMjAuMzU3OCAyMS42OTE5IDIwLjU0NDcgMjEuODE0NyAyMC43NjY1QzIxLjkzNzUgMjAuOTg4MiAyMi4wMDE5IDIxLjIzNzUgMjIuMDAyIDIxLjQ5MUMyMi4wMDI5IDIxLjY4ODcgMjEuOTY0NyAyMS44ODQ3IDIxLjg4OTYgMjIuMDY3NkMyMS44MTQ2IDIyLjI1MDYgMjEuNzA0IDIyLjQxNjggMjEuNTY0NCAyMi41NTY5QzIxLjQyNDggMjIuNjk3IDIxLjI1ODkgMjIuODA4IDIxLjA3NjMgMjIuODgzN0MyMC44OTM2IDIyLjk1OTQgMjAuNjk3NyAyMi45OTgzIDIwLjUgMjIuOTk4QzIwLjMwMjMgMjIuOTk4MyAyMC4xMDY2IDIyLjk1OTUgMTkuOTI0IDIyLjg4MzhDMTkuNzQxNCAyMi44MDgyIDE5LjU3NTUgMjIuNjk3MiAxOS40MzU5IDIyLjU1NzNDMTkuMjk2MyAyMi40MTczIDE5LjE4NTggMjIuMjUxMSAxOS4xMTA2IDIyLjA2ODNDMTkuMDM1NSAyMS44ODU1IDE4Ljk5NzIgMjEuNjg5NyAxOC45OTggMjEuNDkySDE5Wk0xNSAxNy41MDVWMTcuNDkyQzE0Ljk5ODQgMTcuMzYwOCAxNC45NDUzIDE3LjIzNTQgMTQuODUyMiAxNy4xNDNDMTQuNzU5IDE3LjA1MDYgMTQuNjMzMiAxNi45OTg1IDE0LjUwMiAxNi45OThIOS40OThDOS4zNjY3NyAxNi45OTg1IDkuMjQxMDEgMTcuMDUwNiA5LjE0Nzg0IDE3LjE0M0M5LjA1NDY3IDE3LjIzNTQgOS4wMDE1NyAxNy4zNjA4IDkgMTcuNDkyVjE3LjUwNUM5LjAwMTgzIDE3LjYzNjEgOS4wNTUwNSAxNy43NjExIDkuMTQ4MTkgMTcuODUzM0M5LjI0MTMyIDE3Ljk0NTUgOS4zNjY5NCAxNy45OTc1IDkuNDk4IDE3Ljk5OEgxNC41MDJDMTQuNjMzMSAxNy45OTc1IDE0Ljc1ODcgMTcuOTQ1NSAxNC44NTE4IDE3Ljg1MzNDMTQuOTQ1IDE3Ljc2MTEgMTQuOTk4MiAxNy42MzYxIDE1IDE3LjUwNVpNMTUgMTMuNTA1VjEzLjQ5MkMxNC45OTgyIDEzLjM2MSAxNC45NDUgMTMuMjM1OSAxNC44NTE4IDEzLjE0MzdDMTQuNzU4NyAxMy4wNTE1IDE0LjYzMzEgMTIuOTk5NSAxNC41MDIgMTIuOTk5SDkuNDk4QzkuMzY2OTQgMTIuOTk5NSA5LjI0MTMyIDEzLjA1MTUgOS4xNDgxOSAxMy4xNDM3QzkuMDU1MDUgMTMuMjM1OSA5LjAwMTgzIDEzLjM2MSA5IDEzLjQ5MlYxMy41MDZDOS4wMDIwOSAxMy42MzY5IDkuMDU1NDIgMTMuNzYxNyA5LjE0ODUzIDEzLjg1MzdDOS4yNDE2NCAxMy45NDU3IDkuMzY3MTEgMTMuOTk3NSA5LjQ5OCAxMy45OThIMTQuNTAyQzE0LjYzMjkgMTMuOTk3NSAxNC43NTg0IDEzLjk0NTcgMTQuODUxNSAxMy44NTM3QzE0Ljk0NDYgMTMuNzYxNyAxNC45OTc5IDEzLjYzNjkgMTUgMTMuNTA2VjEzLjUwNVoiIGZpbGw9IndoaXRlIi8+JiN4YTs8L3N2Zz4=;labelPosition=center;align=center;" parent="1" vertex="1">
          <mxGeometry x="533" y="486" width="70" height="70" as="geometry" />
        </mxCell>
        <mxCell id="8XwLQpZpgx2G74OoYogg-1" style="edgeStyle=orthogonalEdgeStyle;rounded=0;orthogonalLoop=1;jettySize=auto;html=1;exitX=1;exitY=0.5;exitDx=0;exitDy=0;entryX=0.5;entryY=0;entryDx=0;entryDy=0;" parent="1" source="6t7_bc9BR-5GvSbID-V4-7" target="6t7_bc9BR-5GvSbID-V4-2" edge="1">
          <mxGeometry relative="1" as="geometry">
            <Array as="points">
              <mxPoint x="129" y="403" />
              <mxPoint x="383" y="403" />
            </Array>
          </mxGeometry>
        </mxCell>
        <mxCell id="6t7_bc9BR-5GvSbID-V4-7" value="Сервис &lt;b&gt;заказов (Orders)&lt;/b&gt;" style="rounded=1;whiteSpace=wrap;html=1;fillColor=#f5f5f5;fontColor=#333333;strokeColor=#666666;" parent="1" vertex="1">
          <mxGeometry x="9" y="361" width="120" height="60" as="geometry" />
        </mxCell>
        <mxCell id="8XwLQpZpgx2G74OoYogg-2" style="edgeStyle=orthogonalEdgeStyle;rounded=0;orthogonalLoop=1;jettySize=auto;html=1;exitX=1;exitY=0.5;exitDx=0;exitDy=0;entryX=0.5;entryY=0;entryDx=0;entryDy=0;" parent="1" source="6t7_bc9BR-5GvSbID-V4-8" target="6t7_bc9BR-5GvSbID-V4-2" edge="1">
          <mxGeometry relative="1" as="geometry">
            <Array as="points">
              <mxPoint x="213" y="312" />
              <mxPoint x="383" y="312" />
            </Array>
          </mxGeometry>
        </mxCell>
        <mxCell id="6t7_bc9BR-5GvSbID-V4-8" value="Сервис &lt;b&gt;корзины (Cart)&lt;/b&gt;" style="rounded=1;whiteSpace=wrap;html=1;fillColor=#f5f5f5;fontColor=#333333;strokeColor=#666666;" parent="1" vertex="1">
          <mxGeometry x="93" y="268" width="120" height="60" as="geometry" />
        </mxCell>
        <mxCell id="6t7_bc9BR-5GvSbID-V4-23" style="edgeStyle=orthogonalEdgeStyle;rounded=0;orthogonalLoop=1;jettySize=auto;html=1;exitX=1;exitY=0.5;exitDx=0;exitDy=0;" parent="1" source="6t7_bc9BR-5GvSbID-V4-9" target="6t7_bc9BR-5GvSbID-V4-20" edge="1">
          <mxGeometry relative="1" as="geometry">
            <Array as="points">
              <mxPoint x="677" y="351" />
              <mxPoint x="677" y="286" />
            </Array>
          </mxGeometry>
        </mxCell>
        <mxCell id="6t7_bc9BR-5GvSbID-V4-24" value="производит" style="edgeLabel;html=1;align=center;verticalAlign=middle;resizable=0;points=[];" parent="6t7_bc9BR-5GvSbID-V4-23" vertex="1" connectable="0">
          <mxGeometry x="-0.1355" y="1" relative="1" as="geometry">
            <mxPoint y="-8" as="offset" />
          </mxGeometry>
        </mxCell>
        <mxCell id="6t7_bc9BR-5GvSbID-V4-25" style="edgeStyle=orthogonalEdgeStyle;rounded=0;orthogonalLoop=1;jettySize=auto;html=1;exitX=0.5;exitY=1;exitDx=0;exitDy=0;entryX=1;entryY=0.5;entryDx=0;entryDy=0;" parent="1" source="6t7_bc9BR-5GvSbID-V4-9" target="6t7_bc9BR-5GvSbID-V4-20" edge="1">
          <mxGeometry relative="1" as="geometry">
            <Array as="points">
              <mxPoint x="572" y="397" />
              <mxPoint x="812" y="397" />
              <mxPoint x="812" y="286" />
            </Array>
          </mxGeometry>
        </mxCell>
        <mxCell id="6t7_bc9BR-5GvSbID-V4-26" value="запрашивает данные" style="edgeLabel;html=1;align=center;verticalAlign=middle;resizable=0;points=[];" parent="6t7_bc9BR-5GvSbID-V4-25" vertex="1" connectable="0">
          <mxGeometry x="0.0123" y="4" relative="1" as="geometry">
            <mxPoint x="-1" y="-7" as="offset" />
          </mxGeometry>
        </mxCell>
        <mxCell id="6t7_bc9BR-5GvSbID-V4-9" value="Сервис &lt;b&gt;каталога (Catalog)&lt;/b&gt;" style="rounded=1;whiteSpace=wrap;html=1;fillColor=#f5f5f5;fontColor=#333333;strokeColor=#666666;" parent="1" vertex="1">
          <mxGeometry x="514" y="321" width="120" height="60" as="geometry" />
        </mxCell>
        <mxCell id="6t7_bc9BR-5GvSbID-V4-20" value="СУБД&#xa;OpenSearch" style="shape=image;verticalLabelPosition=bottom;verticalAlign=top;imageAspect=0;aspect=fixed;image=data:image/svg+xml,PHN2ZyB4bWxucz0iaHR0cDovL3d3dy53My5vcmcvMjAwMC9zdmciIGZpbGw9Im5vbmUiIHZpZXdCb3g9IjAgMCAzMiAzMiIgaGVpZ2h0PSIzMiIgd2lkdGg9IjMyIj4mI3hhOzxyZWN0IGZpbGw9IiM1MjgyRkYiIHJ4PSIxNiIgaGVpZ2h0PSIzMiIgd2lkdGg9IjMyIi8+JiN4YTs8cGF0aCBmaWxsPSJ3aGl0ZSIgZD0iTTEyIDE0LjVDMTIgMTcuNTM3NiAxNC40NjI0IDIwIDE3LjUgMjBDMTcuNjY4NSAyMCAxNy44MzUzIDE5Ljk5MjQgMTggMTkuOTc3NlYyMC41QzE4IDIxLjkgMTUuOCAyMyAxMyAyM0MxMC4yIDIzIDggMjEuOSA4IDIwLjVWMTEuNUM4IDEwLjEgMTAuMiA5IDEzIDlDMTMuOTQ3MyA5IDE0LjgyNTkgOS4xMjU5IDE1LjU3MzggOS4zNDY3MkMxMy40ODYzIDEwLjEyNzMgMTIgMTIuMTQwMSAxMiAxNC41Wk0xNy41IDE3LjVDMTUuODQzMSAxNy41IDE0LjUgMTYuMTU2OCAxNC41IDE0LjVDMTQuNSAxMi44NDMyIDE1Ljg0MzEgMTEuNSAxNy41IDExLjVDMTkuMTU2OSAxMS41IDIwLjUgMTIuODQzMiAyMC41IDE0LjVDMjAuNSAxNi4xNTY4IDE5LjE1NjkgMTcuNSAxNy41IDE3LjVaTTE3LjUgMTlDMTUuMDE0NyAxOSAxMyAxNi45ODUzIDEzIDE0LjVDMTMgMTIuMDE0NyAxNS4wMTQ3IDEwIDE3LjUgMTBDMTkuOTg1MyAxMCAyMiAxMi4wMTQ3IDIyIDE0LjVDMjIgMTUuMzgwNSAyMS43NDcxIDE2LjIwMiAyMS4zMDk5IDE2Ljg5NTdMMjMuNzA3MSAxOS4yOTI5QzI0LjA5NzYgMTkuNjgzNCAyNC4wOTc2IDIwLjMxNjYgMjMuNzA3MSAyMC43MDcxQzIzLjMxNjYgMjEuMDk3NiAyMi42ODM0IDIxLjA5NzYgMjIuMjkyOSAyMC43MDcxTDE5Ljg5NTcgMTguMzFDMTkuMjAyIDE4Ljc0NzEgMTguMzgwNSAxOSAxNy41IDE5WiIgY2xpcC1ydWxlPSJldmVub2RkIiBmaWxsLXJ1bGU9ImV2ZW5vZGQiLz4mI3hhOzwvc3ZnPg==;" parent="1" vertex="1">
          <mxGeometry x="722" y="251" width="70" height="70" as="geometry" />
        </mxCell>
        <mxCell id="6t7_bc9BR-5GvSbID-V4-27" value="Потоки данных в системе:&lt;br&gt;чтение данных и Change Data Capture" style="text;html=1;align=center;verticalAlign=middle;resizable=0;points=[];autosize=1;strokeColor=none;fillColor=none;fontSize=30;fontStyle=1" parent="1" vertex="1">
          <mxGeometry x="51" y="5" width="556" height="84" as="geometry" />
        </mxCell>
        <mxCell id="8XwLQpZpgx2G74OoYogg-3" style="edgeStyle=orthogonalEdgeStyle;rounded=0;orthogonalLoop=1;jettySize=auto;html=1;exitX=1;exitY=0.5;exitDx=0;exitDy=0;entryX=0.5;entryY=0;entryDx=0;entryDy=0;" parent="1" source="X_w_U6QVz927maaTTO0x-2" target="6t7_bc9BR-5GvSbID-V4-2" edge="1">
          <mxGeometry relative="1" as="geometry">
            <Array as="points">
              <mxPoint x="292" y="227" />
              <mxPoint x="383" y="227" />
            </Array>
          </mxGeometry>
        </mxCell>
        <mxCell id="X_w_U6QVz927maaTTO0x-2" value="Сервис &lt;b&gt;обратной связи &lt;/b&gt;(&lt;b&gt;Feedback)&lt;/b&gt;" style="rounded=1;whiteSpace=wrap;html=1;fillColor=#f5f5f5;fontColor=#333333;strokeColor=#666666;" parent="1" vertex="1">
          <mxGeometry x="172" y="179" width="120" height="60" as="geometry" />
        </mxCell>
        <mxCell id="se9nnUXJiQDi4H6NhfoD-8" style="edgeStyle=orthogonalEdgeStyle;rounded=0;orthogonalLoop=1;jettySize=auto;html=1;exitX=1;exitY=0.5;exitDx=0;exitDy=0;entryX=0.5;entryY=0;entryDx=0;entryDy=0;" parent="1" source="se9nnUXJiQDi4H6NhfoD-6" target="6t7_bc9BR-5GvSbID-V4-2" edge="1">
          <mxGeometry relative="1" as="geometry">
            <Array as="points">
              <mxPoint x="366" y="151" />
              <mxPoint x="383" y="151" />
            </Array>
          </mxGeometry>
        </mxCell>
        <mxCell id="se9nnUXJiQDi4H6NhfoD-6" value="Сервис &lt;b&gt;товаров (Products)&lt;/b&gt;" style="rounded=1;whiteSpace=wrap;html=1;fillColor=#f5f5f5;fontColor=#333333;strokeColor=#666666;" parent="1" vertex="1">
          <mxGeometry x="246" y="106" width="120" height="60" as="geometry" />
        </mxCell>
        <mxCell id="8XwLQpZpgx2G74OoYogg-5" style="edgeStyle=orthogonalEdgeStyle;rounded=0;orthogonalLoop=1;jettySize=auto;html=1;entryX=0;entryY=0.5;entryDx=0;entryDy=0;" parent="1" source="8XwLQpZpgx2G74OoYogg-4" target="6t7_bc9BR-5GvSbID-V4-2" edge="1">
          <mxGeometry relative="1" as="geometry">
            <mxPoint x="374" y="471" as="targetPoint" />
            <Array as="points">
              <mxPoint x="318" y="609" />
              <mxPoint x="318" y="521" />
            </Array>
          </mxGeometry>
        </mxCell>
        <mxCell id="8XwLQpZpgx2G74OoYogg-4" value="Сервису принадлежит БД в кластере СУБД.&lt;br&gt;Сервису собственная БД доступна для записи и чтения.&lt;br&gt;БД, не принадлежащая сервису, доступна только для чтения." style="shape=note;whiteSpace=wrap;html=1;backgroundOutline=1;darkOpacity=0.05;" parent="1" vertex="1">
          <mxGeometry x="45" y="526" width="144" height="179" as="geometry" />
        </mxCell>
        <mxCell id="8XwLQpZpgx2G74OoYogg-16" style="edgeStyle=orthogonalEdgeStyle;rounded=0;orthogonalLoop=1;jettySize=auto;html=1;exitX=1;exitY=0.5;exitDx=0;exitDy=0;entryX=0;entryY=0.5;entryDx=0;entryDy=0;" parent="1" source="8XwLQpZpgx2G74OoYogg-7" target="8XwLQpZpgx2G74OoYogg-11" edge="1">
          <mxGeometry relative="1" as="geometry">
            <Array as="points">
              <mxPoint x="1040" y="484" />
              <mxPoint x="1063" y="484" />
              <mxPoint x="1063" y="351" />
              <mxPoint x="1257" y="351" />
            </Array>
          </mxGeometry>
        </mxCell>
        <mxCell id="8XwLQpZpgx2G74OoYogg-7" value="Сервис &lt;b&gt;заказов (Orders)&lt;/b&gt;" style="rounded=1;whiteSpace=wrap;html=1;fillColor=#f5f5f5;fontColor=#333333;strokeColor=#666666;" parent="1" vertex="1">
          <mxGeometry x="920" y="447.5" width="120" height="60" as="geometry" />
        </mxCell>
        <mxCell id="8XwLQpZpgx2G74OoYogg-15" style="edgeStyle=orthogonalEdgeStyle;rounded=0;orthogonalLoop=1;jettySize=auto;html=1;exitX=1;exitY=0.5;exitDx=0;exitDy=0;" parent="1" source="8XwLQpZpgx2G74OoYogg-8" target="8XwLQpZpgx2G74OoYogg-11" edge="1">
          <mxGeometry relative="1" as="geometry">
            <Array as="points">
              <mxPoint x="1063" y="402" />
              <mxPoint x="1063" y="351" />
            </Array>
          </mxGeometry>
        </mxCell>
        <mxCell id="8XwLQpZpgx2G74OoYogg-8" value="Сервис &lt;b&gt;корзины (Cart)&lt;/b&gt;" style="rounded=1;whiteSpace=wrap;html=1;fillColor=#f5f5f5;fontColor=#333333;strokeColor=#666666;" parent="1" vertex="1">
          <mxGeometry x="920" y="371.5" width="120" height="60" as="geometry" />
        </mxCell>
        <mxCell id="8XwLQpZpgx2G74OoYogg-13" style="edgeStyle=orthogonalEdgeStyle;rounded=0;orthogonalLoop=1;jettySize=auto;html=1;exitX=1;exitY=0.5;exitDx=0;exitDy=0;entryX=0;entryY=0.5;entryDx=0;entryDy=0;" parent="1" source="8XwLQpZpgx2G74OoYogg-9" target="8XwLQpZpgx2G74OoYogg-11" edge="1">
          <mxGeometry relative="1" as="geometry">
            <Array as="points">
              <mxPoint x="1063" y="303" />
              <mxPoint x="1063" y="351" />
              <mxPoint x="1257" y="351" />
            </Array>
          </mxGeometry>
        </mxCell>
        <mxCell id="8XwLQpZpgx2G74OoYogg-9" value="Сервис &lt;b&gt;обратной связи &lt;/b&gt;(&lt;b&gt;Feedback)&lt;/b&gt;" style="rounded=1;whiteSpace=wrap;html=1;fillColor=#f5f5f5;fontColor=#333333;strokeColor=#666666;" parent="1" vertex="1">
          <mxGeometry x="920" y="272.5" width="120" height="60" as="geometry" />
        </mxCell>
        <mxCell id="8XwLQpZpgx2G74OoYogg-14" style="edgeStyle=orthogonalEdgeStyle;rounded=0;orthogonalLoop=1;jettySize=auto;html=1;exitX=1;exitY=0.5;exitDx=0;exitDy=0;entryX=0;entryY=0.5;entryDx=0;entryDy=0;" parent="1" source="8XwLQpZpgx2G74OoYogg-10" target="8XwLQpZpgx2G74OoYogg-11" edge="1">
          <mxGeometry relative="1" as="geometry">
            <Array as="points">
              <mxPoint x="1063" y="229" />
              <mxPoint x="1063" y="351" />
              <mxPoint x="1257" y="351" />
            </Array>
          </mxGeometry>
        </mxCell>
        <mxCell id="8XwLQpZpgx2G74OoYogg-18" value="производит" style="edgeLabel;html=1;align=center;verticalAlign=middle;resizable=0;points=[];" parent="8XwLQpZpgx2G74OoYogg-14" vertex="1" connectable="0">
          <mxGeometry x="0.3571" y="1" relative="1" as="geometry">
            <mxPoint x="10" y="-13" as="offset" />
          </mxGeometry>
        </mxCell>
        <mxCell id="8XwLQpZpgx2G74OoYogg-10" value="Сервис &lt;b&gt;товаров (Products)&lt;/b&gt;" style="rounded=1;whiteSpace=wrap;html=1;fillColor=#f5f5f5;fontColor=#333333;strokeColor=#666666;" parent="1" vertex="1">
          <mxGeometry x="920" y="198.5" width="120" height="60" as="geometry" />
        </mxCell>
        <mxCell id="CybQ_TqAXvrHYpUEupNX-1" style="edgeStyle=orthogonalEdgeStyle;rounded=0;orthogonalLoop=1;jettySize=auto;html=1;exitX=1;exitY=0.5;exitDx=0;exitDy=0;entryX=0;entryY=0.5;entryDx=0;entryDy=0;" edge="1" parent="1" source="8XwLQpZpgx2G74OoYogg-11" target="8XwLQpZpgx2G74OoYogg-7">
          <mxGeometry relative="1" as="geometry">
            <mxPoint x="1196" y="214" as="targetPoint" />
            <Array as="points">
              <mxPoint x="1349" y="351" />
              <mxPoint x="1349" y="191" />
              <mxPoint x="900" y="191" />
              <mxPoint x="900" y="478" />
            </Array>
          </mxGeometry>
        </mxCell>
        <mxCell id="CybQ_TqAXvrHYpUEupNX-2" value="потребляет,&lt;br&gt;внося изменения&lt;br&gt;в данные микросервиса" style="edgeLabel;html=1;align=center;verticalAlign=middle;resizable=0;points=[];" vertex="1" connectable="0" parent="CybQ_TqAXvrHYpUEupNX-1">
          <mxGeometry x="-0.1096" y="3" relative="1" as="geometry">
            <mxPoint x="265" y="-26" as="offset" />
          </mxGeometry>
        </mxCell>
        <mxCell id="CybQ_TqAXvrHYpUEupNX-3" style="edgeStyle=orthogonalEdgeStyle;rounded=0;orthogonalLoop=1;jettySize=auto;html=1;exitX=1;exitY=0.5;exitDx=0;exitDy=0;entryX=0;entryY=0.5;entryDx=0;entryDy=0;" edge="1" parent="1" source="8XwLQpZpgx2G74OoYogg-11" target="8XwLQpZpgx2G74OoYogg-8">
          <mxGeometry relative="1" as="geometry">
            <Array as="points">
              <mxPoint x="1349" y="351" />
              <mxPoint x="1349" y="191" />
              <mxPoint x="900" y="191" />
              <mxPoint x="900" y="402" />
            </Array>
          </mxGeometry>
        </mxCell>
        <mxCell id="CybQ_TqAXvrHYpUEupNX-4" style="edgeStyle=orthogonalEdgeStyle;rounded=0;orthogonalLoop=1;jettySize=auto;html=1;exitX=1;exitY=0.5;exitDx=0;exitDy=0;entryX=0;entryY=0.5;entryDx=0;entryDy=0;" edge="1" parent="1" source="8XwLQpZpgx2G74OoYogg-11" target="8XwLQpZpgx2G74OoYogg-10">
          <mxGeometry relative="1" as="geometry">
            <Array as="points">
              <mxPoint x="1349" y="351" />
              <mxPoint x="1349" y="191" />
              <mxPoint x="900" y="191" />
              <mxPoint x="900" y="229" />
            </Array>
          </mxGeometry>
        </mxCell>
        <mxCell id="8XwLQpZpgx2G74OoYogg-11" value="Yandex Data Streams&#xa;(шина данных)" style="shape=image;verticalLabelPosition=bottom;labelBackgroundColor=#ffffff;verticalAlign=top;aspect=fixed;imageAspect=0;image=data:image/svg+xml,PHN2ZyB4bWxucz0iaHR0cDovL3d3dy53My5vcmcvMjAwMC9zdmciIHdpZHRoPSIzMiIgaGVpZ2h0PSIzMiIgdmlld0JveD0iMCAwIDMyIDMyIiBmaWxsPSJub25lIj4mI3hhOzxwYXRoIGQ9Ik0wIDE2QzAgNy4xNjM0NCA3LjE2MzQ0IDAgMTYgMEMyNC44MzY2IDAgMzIgNy4xNjM0NCAzMiAxNkMzMiAyNC44MzY2IDI0LjgzNjYgMzIgMTYgMzJDNy4xNjM0NCAzMiAwIDI0LjgzNjYgMCAxNloiIGZpbGw9IiM1MjgyRkYiLz4mI3hhOzxwYXRoIGZpbGwtcnVsZT0iZXZlbm9kZCIgY2xpcC1ydWxlPSJldmVub2RkIiBkPSJNMTkgMjEuNDkyQzE5IDIxLjI2NSAxOS4wNTEgMjEuMDUyIDE5LjE0NiAyMC44NTJMMTcuMjk4IDE4Ljk5OEgxNlYxOS42NzhDMTYgMjAuNDEyIDE1LjQwOCAyMC45OTggMTQuNjc5IDIwLjk5OEg5LjMyQzguNTkxIDIwLjk5OCA4IDIwLjQxMiA4IDE5LjY3OFYxMS4zMTlDOCAxMC41ODYgOC41OTIgOS45OTkwMSA5LjMyMSA5Ljk5OTAxSDE0LjY4QzE1LjQxIDkuOTk5MDEgMTYuMDAxIDEwLjU4NiAxNi4wMDEgMTEuMzE5VjExLjk5OUgxNy4yOTlMMTkuMTQ2IDEwLjE0NkMxOS4wMzYxIDkuOTE3NDkgMTguOTg2IDkuNjY0OCAxOS4wMDA0IDkuNDExNjNDMTkuMDE0OSA5LjE1ODQ2IDE5LjA5MzQgOC45MTMxMiAxOS4yMjg3IDguNjk4NjFDMTkuMzYzOSA4LjQ4NDEgMTkuNTUxNCA4LjMwNzQ3IDE5Ljc3MzYgOC4xODUyN0MxOS45OTU4IDguMDYzMDggMjAuMjQ1NCA3Ljk5OTMzIDIwLjQ5OSA4LjAwMDAxQzIwLjcyNDIgNy45OTk5MSAyMC45NDY2IDguMDUwNTQgMjEuMTQ5NiA4LjE0ODEzQzIxLjM1MjUgOC4yNDU3MiAyMS41MzA5IDguMzg3NzYgMjEuNjcxNSA4LjU2MzcyQzIxLjgxMjEgOC43Mzk2OCAyMS45MTEyIDguOTQ1MDMgMjEuOTYxNiA5LjE2NDU1QzIyLjAxMiA5LjM4NDA3IDIyLjAxMjMgOS42MTIxMSAyMS45NjI1IDkuODMxNzVDMjEuOTEyNiAxMC4wNTE0IDIxLjgxNCAxMC4yNTcgMjEuNjczOSAxMC40MzMzQzIxLjUzMzcgMTAuNjA5NiAyMS4zNTU3IDEwLjc1MjEgMjEuMTUzIDEwLjg1MDJDMjAuOTUwMiAxMC45NDgzIDIwLjcyOCAxMC45OTk1IDIwLjUwMjggMTFDMjAuMjc3NiAxMS4wMDA1IDIwLjA1NTEgMTAuOTUwMiAxOS44NTIgMTAuODUzTDE3Ljg2IDEyLjg1M0MxNy43NjU4IDEyLjk0NjIgMTcuNjM4NSAxMi45OTgzIDE3LjUwNiAxMi45OThIMTZWMTQuOTk4SDIxLjA4MkMyMS4yODggMTQuNDExIDIxLjg0NCAxMy45OTggMjIuNDk4IDEzLjk5OEMyMi44OTU4IDEzLjk5OCAyMy4yNzc0IDE0LjE1NiAyMy41NTg3IDE0LjQzNzNDMjMuODQgMTQuNzE4NiAyMy45OTggMTUuMTAwMiAyMy45OTggMTUuNDk4QzIzLjk5OCAxNS44OTU4IDIzLjg0IDE2LjI3NzQgMjMuNTU4NyAxNi41NTg3QzIzLjI3NzQgMTYuODQgMjIuODk1OCAxNi45OTggMjIuNDk4IDE2Ljk5OEMyMS44NDQgMTYuOTk4IDIxLjI4OCAxNi41ODQgMjEuMDgyIDE1Ljk5OEgxNlYxNy45OThIMTcuNTA2QzE3LjYzOCAxNy45OTggMTcuNzY2IDE4LjA1MSAxNy44NiAxOC4xNDRMMTkuODUzIDIwLjE0NEMyMC4wODEyIDIwLjAzMzYgMjAuMzMzNiAxOS45ODMgMjAuNTg2NyAxOS45OTY4QzIwLjgzOTggMjAuMDEwNiAyMS4wODUzIDIwLjA4ODUgMjEuMzAwMSAyMC4yMjMxQzIxLjUxNDggMjAuMzU3OCAyMS42OTE5IDIwLjU0NDcgMjEuODE0NyAyMC43NjY1QzIxLjkzNzUgMjAuOTg4MiAyMi4wMDE5IDIxLjIzNzUgMjIuMDAyIDIxLjQ5MUMyMi4wMDI5IDIxLjY4ODcgMjEuOTY0NyAyMS44ODQ3IDIxLjg4OTYgMjIuMDY3NkMyMS44MTQ2IDIyLjI1MDYgMjEuNzA0IDIyLjQxNjggMjEuNTY0NCAyMi41NTY5QzIxLjQyNDggMjIuNjk3IDIxLjI1ODkgMjIuODA4IDIxLjA3NjMgMjIuODgzN0MyMC44OTM2IDIyLjk1OTQgMjAuNjk3NyAyMi45OTgzIDIwLjUgMjIuOTk4QzIwLjMwMjMgMjIuOTk4MyAyMC4xMDY2IDIyLjk1OTUgMTkuOTI0IDIyLjg4MzhDMTkuNzQxNCAyMi44MDgyIDE5LjU3NTUgMjIuNjk3MiAxOS40MzU5IDIyLjU1NzNDMTkuMjk2MyAyMi40MTczIDE5LjE4NTggMjIuMjUxMSAxOS4xMTA2IDIyLjA2ODNDMTkuMDM1NSAyMS44ODU1IDE4Ljk5NzIgMjEuNjg5NyAxOC45OTggMjEuNDkySDE5Wk0xNSAxNy41MDVWMTcuNDkyQzE0Ljk5ODQgMTcuMzYwOCAxNC45NDUzIDE3LjIzNTQgMTQuODUyMiAxNy4xNDNDMTQuNzU5IDE3LjA1MDYgMTQuNjMzMiAxNi45OTg1IDE0LjUwMiAxNi45OThIOS40OThDOS4zNjY3NyAxNi45OTg1IDkuMjQxMDEgMTcuMDUwNiA5LjE0Nzg0IDE3LjE0M0M5LjA1NDY3IDE3LjIzNTQgOS4wMDE1NyAxNy4zNjA4IDkgMTcuNDkyVjE3LjUwNUM5LjAwMTgzIDE3LjYzNjEgOS4wNTUwNSAxNy43NjExIDkuMTQ4MTkgMTcuODUzM0M5LjI0MTMyIDE3Ljk0NTUgOS4zNjY5NCAxNy45OTc1IDkuNDk4IDE3Ljk5OEgxNC41MDJDMTQuNjMzMSAxNy45OTc1IDE0Ljc1ODcgMTcuOTQ1NSAxNC44NTE4IDE3Ljg1MzNDMTQuOTQ1IDE3Ljc2MTEgMTQuOTk4MiAxNy42MzYxIDE1IDE3LjUwNVpNMTUgMTMuNTA1VjEzLjQ5MkMxNC45OTgyIDEzLjM2MSAxNC45NDUgMTMuMjM1OSAxNC44NTE4IDEzLjE0MzdDMTQuNzU4NyAxMy4wNTE1IDE0LjYzMzEgMTIuOTk5NSAxNC41MDIgMTIuOTk5SDkuNDk4QzkuMzY2OTQgMTIuOTk5NSA5LjI0MTMyIDEzLjA1MTUgOS4xNDgxOSAxMy4xNDM3QzkuMDU1MDUgMTMuMjM1OSA5LjAwMTgzIDEzLjM2MSA5IDEzLjQ5MlYxMy41MDZDOS4wMDIwOSAxMy42MzY5IDkuMDU1NDIgMTMuNzYxNyA5LjE0ODUzIDEzLjg1MzdDOS4yNDE2NCAxMy45NDU3IDkuMzY3MTEgMTMuOTk3NSA5LjQ5OCAxMy45OThIMTQuNTAyQzE0LjYzMjkgMTMuOTk3NSAxNC43NTg0IDEzLjk0NTcgMTQuODUxNSAxMy44NTM3QzE0Ljk0NDYgMTMuNzYxNyAxNC45OTc5IDEzLjYzNjkgMTUgMTMuNTA2VjEzLjUwNVoiIGZpbGw9IndoaXRlIi8+JiN4YTs8L3N2Zz4=;labelPosition=center;align=center;" parent="1" vertex="1">
          <mxGeometry x="1265" y="316" width="70" height="70" as="geometry" />
        </mxCell>
        <mxCell id="8XwLQpZpgx2G74OoYogg-17" value="Потоки данных в системе:&lt;br&gt;операции изменения данных&lt;br&gt;в других микросервисах" style="text;html=1;align=center;verticalAlign=middle;resizable=0;points=[];autosize=1;strokeColor=none;fillColor=none;fontSize=30;fontStyle=1" parent="1" vertex="1">
          <mxGeometry x="889" y="17" width="429" height="120" as="geometry" />
        </mxCell>
      </root>
    </mxGraphModel>
  </diagram>
</mxfile>
